<svg id="Layer_1" data-name="Layer 1" xmlns="http://www.w3.org/2000/svg" viewBox="0 0 2992.63672 2006.13574"><defs><style>.cls-1{font-size:420.73294px;font-family:OpenSans, Open Sans;}</style></defs><text x="333" y="155"/><text class="cls-1" transform="translate(527.34229 550.89099)">BE</text><text class="cls-1" transform="translate(512.55029 1468.22546)">WITH</text><text class="cls-1" transform="translate(503.55029 1892.11902)">FONTS</text><path d="M1112.19775,44.5625h184.00733c84.01758,0,138.44873,34.90869,138.44873,98.80713,0,53.249-34.31641,80.46582-68.63281,92.89062,18.93408,9.4668,50.88281,35.50049,50.88281,83.42432,0,77.50684-66.85645,130.75635-166.84863,130.75635H1025.81543Zm73.958,321.8623h25.4419c25.44238,0,52.06591-12.42529,52.06591-50.29,0-23.07471-12.4248-35.49952-36.0913-35.49952h-23.0752Zm57.9834-165.07275c30.76611,0,44.37451-15.97461,44.37451-43.19043,0-20.708-12.4248-29.583-32.5415-29.583h-18.93408l-15.38282,72.77344Z" transform="translate(333 155)"/><path d="M1878.98438,627.73779c0,85.79248-37.27735,256.77979-238.43946,256.77979-120.1084,0-173.94922-63.90088-173.94922-167.43994,0-101.76709,55.61719-259.73828,235.48047-259.73828C1810.35156,457.33936,1878.98438,518.28174,1878.98438,627.73779ZM1619.24414,734.82715c0,34.31543,7.09961,51.47461,31.95117,51.47461,57.98242,0,76.32422-157.97071,76.32422-182.23,0-36.09033-7.69141-47.9253-31.95117-47.9253C1641.72656,556.14648,1619.24414,696.96045,1619.24414,734.82715Z" transform="translate(333 155)"/><path d="M1973.63086,907.708h149.09766l-64.49024,303.52148H2214.4375l-36.0918,102.35742H1887.24805Z" transform="translate(333 155)"/><path d="M2320.61523,1346.90527h166.84766c114.19141,0,172.17383,71.59082,172.17383,164.48243,0,123.0625-65.08008,241.39648-226.60742,241.39648H2234.23242Zm82.832,310.6211h28.40039c59.166,0,73.957-124.83789,73.957-163.29688,0-35.5-11.24024-52.0664-39.64063-52.0664h-16.5664Z" transform="translate(333 155)"/></svg>