<?xml version="1.0" encoding="utf-8"?>
<!-- Generator: Adobe Illustrator 26.0.0, SVG Export Plug-In . SVG Version: 6.00 Build 0)  -->
<svg version="1.1" id="Layer_1" xmlns="http://www.w3.org/2000/svg" xmlns:xlink="http://www.w3.org/1999/xlink" x="0px" y="0px"
	 viewBox="0 0 2992.6 2006.1" style="enable-background:new 0 0 2992.6 2006.1;" xml:space="preserve">
<style type="text/css">
	.st0{enable-background:new    ;}
</style>
<g class="st0">
	<path d="M316.9,199.9h84.8c39.9,0,68.7,6,86.5,17.9c17.8,11.9,26.7,30.7,26.7,56.5c0,17.8-5,32.5-14.9,44.1
		c-9.9,11.6-24.4,19.1-43.4,22.5v2.1c45.6,7.8,68.4,31.8,68.4,71.9c0,26.8-9.1,47.8-27.2,62.9c-18.1,15.1-43.5,22.6-76.1,22.6H316.9
		V199.9z M351.8,328.5h57.5c24.7,0,42.4-3.9,53.2-11.6c10.8-7.7,16.2-20.8,16.2-39.1c0-16.8-6-29-18.1-36.5
		c-12.1-7.5-31.2-11.2-57.5-11.2h-51.4V328.5z M351.8,358.1v112.4h62.7c24.2,0,42.5-4.7,54.7-14.1c12.3-9.4,18.4-24.1,18.4-44.1
		c0-18.6-6.3-32.3-18.8-41.1c-12.5-8.8-31.6-13.1-57.2-13.1H351.8z"/>
	<path d="M756.9,500.3H589.5V199.9h167.4v31H624.4v96.8h124.5v30.8H624.4v110.5h132.5V500.3z"/>
</g>
<g class="st0">
	<path d="M564.2,1417.6h-34.5l-60.6-201.1c-2.9-8.9-6.1-20.1-9.7-33.7c-3.6-13.6-5.4-21.7-5.5-24.4c-3,18.1-7.8,37.9-14.4,59.4
		l-58.8,199.9h-34.5l-79.9-300.3h37l47.5,185.5c6.6,26,11.4,49.6,14.4,70.7c3.7-25.1,9.2-49.6,16.4-73.5l53.8-182.6h37l56.5,184.3
		c6.6,21.2,12.1,45.2,16.6,71.9c2.6-19.4,7.5-43.1,14.8-71.1l47.2-185.1h37L564.2,1417.6z"/>
	<path d="M691.6,1417.6v-300.3h34.9v300.3H691.6z"/>
	<path d="M901.3,1417.6h-34.9v-269.3h-95.1v-31h225.2v31h-95.1V1417.6z"/>
	<path d="M1269.7,1417.6h-34.9v-141.3h-158.2v141.3h-34.9v-300.3h34.9v127.8h158.2v-127.8h34.9V1417.6z"/>
</g>
<g class="st0">
	<path d="M328,1841.5h-34.9v-300.3h167.4v31H328v109.9h124.5v31H328V1841.5z"/>
	<path d="M770.9,1690.9c0,48.1-12.2,85.9-36.5,113.4c-24.3,27.5-58.1,41.3-101.4,41.3c-44.2,0-78.4-13.5-102.4-40.6
		c-24-27-36.1-65.2-36.1-114.5c0-48.9,12-86.8,36.2-113.7c24.1-26.9,58.3-40.4,102.7-40.4c43.1,0,76.8,13.7,101.1,41.1
		C758.8,1604.9,770.9,1642.7,770.9,1690.9z M531.6,1690.9c0,40.7,8.7,71.5,26,92.5c17.3,21,42.5,31.5,75.5,31.5
		c33.3,0,58.4-10.5,75.4-31.4c17-21,25.5-51.8,25.5-92.7c0-40.4-8.5-71-25.4-91.9c-16.9-20.9-41.9-31.3-75.1-31.3
		c-33.3,0-58.6,10.5-75.9,31.5C540.2,1620.2,531.6,1650.8,531.6,1690.9z"/>
	<path d="M1072.5,1841.5h-39.9l-164.1-252.1h-1.6c2.2,29.6,3.3,56.7,3.3,81.4v170.7h-32.3v-300.3h39.4l163.7,251h1.6
		c-0.3-3.7-0.9-15.6-1.8-35.6c-1-20.1-1.3-34.4-1-43v-172.4h32.7V1841.5z"/>
	<path d="M1247.5,1841.5h-34.9v-269.3h-95.1v-31h225.2v31h-95.1V1841.5z"/>
	<path d="M1557.3,1761.6c0,26.4-9.6,47-28.8,61.8c-19.2,14.8-45.2,22.2-78.1,22.2c-35.6,0-63-4.6-82.2-13.8v-33.7
		c12.3,5.2,25.7,9.3,40.3,12.3c14.5,3,28.9,4.5,43.1,4.5c23.3,0,40.8-4.4,52.6-13.3c11.8-8.8,17.7-21.1,17.7-36.9
		c0-10.4-2.1-18.9-6.3-25.6c-4.2-6.6-11.2-12.8-21-18.4c-9.8-5.6-24.7-12-44.7-19.1c-27.9-10-47.9-21.8-59.9-35.5
		c-12-13.7-18-31.6-18-53.6c0-23.1,8.7-41.6,26.1-55.3c17.4-13.7,40.4-20.5,69-20.5c29.9,0,57.3,5.5,82.4,16.4l-10.9,30.4
		c-24.8-10.4-48.9-15.6-72.3-15.6c-18.5,0-32.9,4-43.3,11.9c-10.4,7.9-15.6,19-15.6,33.1c0,10.4,1.9,18.9,5.8,25.6
		c3.8,6.6,10.3,12.7,19.4,18.3c9.1,5.5,23,11.7,41.8,18.4c31.5,11.2,53.2,23.3,65,36.2C1551.4,1724.3,1557.3,1741.1,1557.3,1761.6z"
		/>
</g>
<path d="M1193.4,149h184c84,0,138.4,34.9,138.4,98.8c0,53.2-34.3,80.5-68.6,92.9c18.9,9.5,50.9,35.5,50.9,83.4
	c0,77.5-66.9,130.8-166.8,130.8H1107L1193.4,149z M1267.4,470.8h25.4c25.4,0,52.1-12.4,52.1-50.3c0-23.1-12.4-35.5-36.1-35.5h-23.1
	L1267.4,470.8z M1325.4,305.7c30.8,0,44.4-16,44.4-43.2c0-20.7-12.4-29.6-32.5-29.6h-18.9l-15.4,72.8H1325.4z"/>
<path d="M1960.2,732.1c0,85.8-37.3,256.8-238.4,256.8c-120.1,0-173.9-63.9-173.9-167.4c0-101.8,55.6-259.7,235.5-259.7
	C1891.6,561.7,1960.2,622.7,1960.2,732.1z M1700.5,839.2c0,34.3,7.1,51.5,32,51.5c58,0,76.3-158,76.3-182.2c0-36.1-7.7-47.9-32-47.9
	C1723,660.5,1700.5,801.4,1700.5,839.2z"/>
<path d="M2054.9,1012.1H2204l-64.5,303.5h156.2l-36.1,102.4h-291.1L2054.9,1012.1z"/>
<path d="M2401.8,1451.3h166.8c114.2,0,172.2,71.6,172.2,164.5c0,123.1-65.1,241.4-226.6,241.4h-198.8L2401.8,1451.3z M2484.7,1761.9
	h28.4c59.2,0,74-124.8,74-163.3c0-35.5-11.2-52.1-39.6-52.1h-16.6L2484.7,1761.9z"/>
</svg>
