<svg id="Capa_1" data-name="Capa 1" xmlns="http://www.w3.org/2000/svg" viewBox="0 0 369.50112 343.60004"><path d="M159.1,378v61.7a15.19327,15.19327,0,0,1-15.2,15.2c-29.8,0-46.1,30.6-48.3,91H144a15.19326,15.19326,0,0,1,15.2,15.2v130.2A15.10824,15.10824,0,0,1,144,706.4H15.2a15.17222,15.17222,0,0,1-15.2-15.1V561c0-29,2.9-55.5,8.7-79,5.9-24,14.9-45.1,26.9-62.5,12.3-17.9,27.7-32,45.7-41.8,18.2-9.8,39.3-14.8,62.7-14.8A14.96069,14.96069,0,0,1,159.1,378Zm195.4-15.2c-23.5,0-44.6,5-62.7,14.8-18,9.8-33.4,23.9-45.7,41.8-11.9,17.4-21,38.5-26.9,62.5-5.7,23.5-8.7,50-8.7,79V691.1a15.08648,15.08648,0,0,0,15.1,15.1H354.4a15.08652,15.08652,0,0,0,15.1-15.1V561a15.17223,15.17223,0,0,0-15.1-15.2H306.8c2.2-60.4,18.2-91,47.6-91a15.10828,15.10828,0,0,0,15.1-15.2V378A15.024,15.024,0,0,0,354.5,362.8Z" transform="translate(0 -362.79999)"/></svg>